<svg width="323" height="130" viewBox="0 0 323 130" fill="none" xmlns="http://www.w3.org/2000/svg">
<g id="NESController">
<rect width="323" height="130" fill="#C4C4C4"/>
<rect id="Background" x="7" y="21" width="309" height="102" fill="black"/>
<g id="DPAD">
<g id="Dpadoutyline">
<path d="M36 30H71V115H36V30Z" fill="#C4C4C4"/>
<path d="M11 90V55H96V90H11Z" fill="#C4C4C4"/>
</g>
<g id="DpadBackground">
<path d="M38.3125 32H68.6875V113H38.3125V32Z" fill="black"/>
<path d="M13 87.6875V57.3125H94V87.6875H13Z" fill="black"/>
</g>
<circle id="Dot" cx="53" cy="72" r="10" fill="#686868"/>
<g id="Pads">
<rect id="DownPad" x="38" y="88" width="31" height="25" fill="#FF0000" fill-opacity="0.00"/>
<rect id="UpPad" x="38" y="32" width="31" height="25" fill="#FF0000" fill-opacity="0.00"/>
<rect id="RightPad" x="69" y="57" width="25" height="31" fill="#FF0000" fill-opacity="0.00"/>
<rect id="LeftPad" x="13" y="57" width="25" height="31" fill="#FF0000" fill-opacity="0.00"/>
</g>
<g id="Arrows">
<path id="UpArrow" d="M53.5 34L64.3253 52.75H42.6747L53.5 34Z" fill="#686868"/>
<path id="DownArrow" d="M53.5 110L42.6747 91.25H64.3253L53.5 110Z" fill="#686868"/>
<path id="RightArrow" d="M91 72.5L72.25 83.3253V61.6747L91 72.5Z" fill="#686868"/>
<path id="LeftArrow" d="M15 72.5L33.75 61.6747L33.75 83.3253L15 72.5Z" fill="#686868"/>
</g>
</g>
<g id="ButtonsAB">
<rect id="backgroundB" x="207.5" y="60.5" width="47" height="47" fill="#C4C4C4" stroke="black"/>
<path id="BackgroundA" d="M261 60.5H308V107.5H261V60.5Z" fill="#C4C4C4" stroke="black"/>
<path id="B" d="M208.172 118V109.445L208.793 109.152H211.688C212.859 109.152 213.445 109.738 213.445 110.91V111.871C213.445 112.301 213.332 112.643 213.105 112.896C213.684 113.225 213.973 113.801 213.973 114.625V115.949C213.973 117.316 213.289 118 211.922 118H208.172ZM209.344 116.945H211.922C212.508 116.945 212.801 116.613 212.801 115.949V114.625C212.801 113.961 212.508 113.629 211.922 113.629H209.344V116.945ZM209.344 112.574H211.688C212.078 112.574 212.273 112.34 212.273 111.871V110.91C212.273 110.441 212.078 110.207 211.688 110.207H209.344V112.574Z" fill="#FF0000"/>
<path id="A" d="M260.172 118.234V111.203C260.172 109.836 260.855 109.152 262.223 109.152H264.039C265.406 109.152 266.09 109.836 266.09 111.203V117.707L264.977 118.234H264.918V114.109H261.344V117.707L260.23 118.234H260.172ZM261.344 113.043H264.918V111.203C264.918 110.539 264.625 110.207 264.039 110.207H262.223C261.637 110.207 261.344 110.539 261.344 111.203V113.043Z" fill="#FF0000"/>
<circle id="ButtonA" cx="285" cy="84" r="19" fill="#FF0000" stroke="black" stroke-width="2"/>
<circle id="ButtonB" cx="231" cy="84" r="19" fill="#FF0000" stroke="black" stroke-width="2"/>
</g>
<g id="ButtonsStartSelect">
<rect id="decoRectangle1" x="102" y="18" width="99" height="12" rx="2" fill="#C4C4C4"/>
<rect id="decoRectangle1_2" x="102" y="39" width="99" height="12" rx="2" fill="#C4C4C4"/>
<rect id="decoRectangle1_3" x="102" y="62" width="99" height="12" rx="2" fill="#C4C4C4"/>
<rect id="StartSelectBackground" x="102" y="83" width="99" height="24" rx="2" fill="#C4C4C4"/>
<path id="SelectText" d="M108.988 72C107.621 72 106.938 71.3164 106.938 69.9492V69.3047L108.051 68.7773H108.109V69.9492C108.109 70.6133 108.402 70.9453 108.988 70.9453H110.805C111.391 70.9453 111.684 70.6133 111.684 69.9492V68.7188C111.684 68.0547 111.391 67.7227 110.805 67.7227H109.223C108.051 67.7227 107.465 67.1367 107.465 65.9648V64.9102C107.465 63.7383 108.051 63.1523 109.223 63.1523H110.57C111.742 63.1523 112.328 63.7383 112.328 64.9102V65.2207L111.215 65.748H111.156V64.9102C111.156 64.4414 110.961 64.207 110.57 64.207H109.223C108.832 64.207 108.637 64.4414 108.637 64.9102V65.9648C108.637 66.4336 108.832 66.668 109.223 66.668H110.805C112.172 66.668 112.855 67.3516 112.855 68.7188V69.9492C112.855 71.3164 112.172 72 110.805 72H108.988ZM116.43 72C115.258 72 114.672 71.4141 114.672 70.2422V67.3125C114.672 66.1406 115.258 65.5547 116.43 65.5547H117.777C118.949 65.5547 119.535 66.1406 119.535 67.3125V67.623L115.861 70.4648C115.916 70.7852 116.105 70.9453 116.43 70.9453H117.777C118.168 70.9453 118.363 70.7109 118.363 70.2422V69.9316L119.477 69.4043H119.535V70.2422C119.535 71.4141 118.949 72 117.777 72H116.43ZM115.844 69.2402L118.357 67.2129C118.334 66.8105 118.141 66.6094 117.777 66.6094H116.43C116.039 66.6094 115.844 66.8438 115.844 67.3125V69.2402ZM121.586 72.2344V63.4453L122.699 62.918H122.758V71.707L121.645 72.2344H121.586ZM126.566 72C125.395 72 124.809 71.4141 124.809 70.2422V67.3125C124.809 66.1406 125.395 65.5547 126.566 65.5547H127.914C129.086 65.5547 129.672 66.1406 129.672 67.3125V67.623L125.998 70.4648C126.053 70.7852 126.242 70.9453 126.566 70.9453H127.914C128.305 70.9453 128.5 70.7109 128.5 70.2422V69.9316L129.613 69.4043H129.672V70.2422C129.672 71.4141 129.086 72 127.914 72H126.566ZM125.98 69.2402L128.494 67.2129C128.471 66.8105 128.277 66.6094 127.914 66.6094H126.566C126.176 66.6094 125.98 66.8438 125.98 67.3125V69.2402ZM133.188 72C132.016 72 131.43 71.4141 131.43 70.2422V67.3125C131.43 66.1406 132.016 65.5547 133.188 65.5547H134.535C135.707 65.5547 136.293 66.1406 136.293 67.3125V67.623L135.18 68.1504H135.121V67.3125C135.121 66.8438 134.926 66.6094 134.535 66.6094H133.188C132.797 66.6094 132.602 66.8438 132.602 67.3125V70.2422C132.602 70.7109 132.797 70.9453 133.188 70.9453H134.535C134.926 70.9453 135.121 70.7109 135.121 70.2422V69.9316L136.234 69.4043H136.293V70.2422C136.293 71.4141 135.707 72 134.535 72H133.188ZM138.824 72.2344V66.6211H137.318V66.5625L137.793 65.5547H138.824V63.4453L139.938 62.918H139.996V65.5547H141.502V65.6133L141.027 66.6211H139.996V71.707L138.883 72.2344H138.824Z" fill="#FF0000"/>
<path id="startText" d="M167.988 72C166.621 72 165.938 71.3164 165.938 69.9492V69.3047L167.051 68.7773H167.109V69.9492C167.109 70.6133 167.402 70.9453 167.988 70.9453H169.805C170.391 70.9453 170.684 70.6133 170.684 69.9492V68.7188C170.684 68.0547 170.391 67.7227 169.805 67.7227H168.223C167.051 67.7227 166.465 67.1367 166.465 65.9648V64.9102C166.465 63.7383 167.051 63.1523 168.223 63.1523H169.57C170.742 63.1523 171.328 63.7383 171.328 64.9102V65.2207L170.215 65.748H170.156V64.9102C170.156 64.4414 169.961 64.207 169.57 64.207H168.223C167.832 64.207 167.637 64.4414 167.637 64.9102V65.9648C167.637 66.4336 167.832 66.668 168.223 66.668H169.805C171.172 66.668 171.855 67.3516 171.855 68.7188V69.9492C171.855 71.3164 171.172 72 169.805 72H167.988ZM174.445 72.2344V66.6211H172.939V66.5625L173.414 65.5547H174.445V63.4453L175.559 62.918H175.617V65.5547H177.123V65.6133L176.648 66.6211H175.617V71.707L174.504 72.2344H174.445ZM179.613 70.9453H180.844C181.234 70.9453 181.43 70.7109 181.43 70.2422V69.4395C181.43 68.9707 181.234 68.7363 180.844 68.7363H179.613C179.223 68.7363 179.027 68.9707 179.027 69.4395V70.2422C179.027 70.7109 179.223 70.9453 179.613 70.9453ZM179.613 72C178.441 72 177.855 71.4141 177.855 70.2422V69.4395C177.855 68.2676 178.441 67.6816 179.613 67.6816H180.844C181.047 67.6816 181.242 67.7402 181.43 67.8574V67.3125C181.43 66.8438 181.234 66.6094 180.844 66.6094H178.746V66.5508L179.215 65.5547H180.844C182.016 65.5547 182.602 66.1406 182.602 67.3125V71.707L181.488 72.2344H181.43V71.8242C181.281 71.9414 181.086 72 180.844 72H179.613ZM184.359 72.2344V67.3125C184.359 66.1406 184.945 65.5547 186.117 65.5547H187.582V65.6133L187.113 66.6094H186.117C185.727 66.6094 185.531 66.8438 185.531 67.3125V71.707L184.418 72.2344H184.359ZM189.352 72.2344V66.6211H187.846V66.5625L188.32 65.5547H189.352V63.4453L190.465 62.918H190.523V65.5547H192.029V65.6133L191.555 66.6211H190.523V71.707L189.41 72.2344H189.352Z" fill="#FF0000"/>
<rect id="ButtonSelect" x="109" y="89" width="31" height="12" rx="3" fill="black"/>
<rect id="ButtonStart" x="163" y="89" width="31" height="12" rx="3" fill="black"/>
</g>
<path id="Shunger" d="M228.486 47C226.891 47 226.094 46.2025 226.094 44.6074V43.8555L227.393 43.2402H227.461V44.6074C227.461 45.3822 227.803 45.7695 228.486 45.7695H230.605C231.289 45.7695 231.631 45.3822 231.631 44.6074V43.1719C231.631 42.3971 231.289 42.0098 230.605 42.0098H228.76C227.393 42.0098 226.709 41.3262 226.709 39.959V38.7285C226.709 37.3613 227.393 36.6777 228.76 36.6777H230.332C231.699 36.6777 232.383 37.3613 232.383 38.7285V39.0908L231.084 39.7061H231.016V38.7285C231.016 38.1816 230.788 37.9082 230.332 37.9082H228.76C228.304 37.9082 228.076 38.1816 228.076 38.7285V39.959C228.076 40.5059 228.304 40.7793 228.76 40.7793H230.605C232.201 40.7793 232.998 41.5768 232.998 43.1719V44.6074C232.998 46.2025 232.201 47 230.605 47H228.486ZM235.459 47.2734V37.0195L236.758 36.4043H236.826V39.6924C237.027 39.5511 237.255 39.4805 237.51 39.4805H239.082C240.449 39.4805 241.133 40.1641 241.133 41.5312V46.6582L239.834 47.2734H239.766V41.5312C239.766 40.9844 239.538 40.7109 239.082 40.7109H237.51C237.054 40.7109 236.826 40.9844 236.826 41.5312V46.6582L235.527 47.2734H235.459ZM245.234 47C243.867 47 243.184 46.3164 243.184 44.9492V39.8223L244.482 39.207H244.551V44.9492C244.551 45.4961 244.779 45.7695 245.234 45.7695H246.807C247.262 45.7695 247.49 45.4961 247.49 44.9492V39.8223L248.789 39.207H248.857V44.9492C248.857 46.3164 248.174 47 246.807 47H245.234ZM250.908 47.2734V41.5312C250.908 40.1641 251.592 39.4805 252.959 39.4805H254.531C255.898 39.4805 256.582 40.1641 256.582 41.5312V46.6582L255.283 47.2734H255.215V41.5312C255.215 40.9844 254.987 40.7109 254.531 40.7109H252.959C252.503 40.7109 252.275 40.9844 252.275 41.5312V46.6582L250.977 47.2734H250.908ZM260.684 47C259.316 47 258.633 46.3164 258.633 44.9492V41.5312C258.633 40.1641 259.316 39.4805 260.684 39.4805H262.256C263.623 39.4805 264.307 40.1641 264.307 41.5312V47.752C264.307 49.1191 263.623 49.8027 262.256 49.8027H259.344V49.7344L259.891 48.5723H262.256C262.712 48.5723 262.939 48.2988 262.939 47.752V46.7949C262.748 46.9316 262.52 47 262.256 47H260.684ZM260.684 45.7695H262.256C262.712 45.7695 262.939 45.4961 262.939 44.9492V41.5312C262.939 40.9844 262.712 40.7109 262.256 40.7109H260.684C260.228 40.7109 260 40.9844 260 41.5312V44.9492C260 45.4961 260.228 45.7695 260.684 45.7695ZM268.613 47C267.246 47 266.562 46.3164 266.562 44.9492V41.5312C266.562 40.1641 267.246 39.4805 268.613 39.4805H270.186C271.553 39.4805 272.236 40.1641 272.236 41.5312V41.8936L267.95 45.209C268.014 45.5827 268.235 45.7695 268.613 45.7695H270.186C270.641 45.7695 270.869 45.4961 270.869 44.9492V44.5869L272.168 43.9717H272.236V44.9492C272.236 46.3164 271.553 47 270.186 47H268.613ZM267.93 43.7803L270.862 41.415C270.835 40.9456 270.609 40.7109 270.186 40.7109H268.613C268.158 40.7109 267.93 40.9844 267.93 41.5312V43.7803ZM274.287 47.2734V41.5312C274.287 40.1641 274.971 39.4805 276.338 39.4805H278.047V39.5488L277.5 40.7109H276.338C275.882 40.7109 275.654 40.9844 275.654 41.5312V46.6582L274.355 47.2734H274.287Z" fill="#FF0000"/>
</g>
</svg>
